<?xml version="1.0" encoding="utf-8"?>
<!-- Generator: Adobe Illustrator 16.0.0, SVG Export Plug-In . SVG Version: 6.00 Build 0)  -->
<!DOCTYPE svg PUBLIC "-//W3C//DTD SVG 1.1//EN" "http://www.w3.org/Graphics/SVG/1.1/DTD/svg11.dtd" [
	<!ENTITY st0 "fill:none;stroke:#12264A;stroke-width:1.349;stroke-miterlimit:10;">
	<!ENTITY st1 "display:none;fill:#FFFFFF;">
	<!ENTITY st2 "fill:#12264A;">
	<!ENTITY st3 "fill:#132F51;">
	<!ENTITY st4 "fill:none;stroke:#978FAB;stroke-width:1.4611;stroke-miterlimit:10;">
	<!ENTITY st5 "fill:none;stroke:#F47C52;stroke-width:1.4382;stroke-miterlimit:10;">
	<!ENTITY st6 "fill:none;stroke:#978FAB;stroke-width:1.7691;stroke-miterlimit:10;">
	<!ENTITY st7 "fill:#E9EAEC;">
	<!ENTITY st8 "fill:#4F577B;">
	<!ENTITY st9 "fill:#4F7ABD;">
	<!ENTITY st10 "fill:#4F863D;">
	<!ENTITY st11 "opacity:0.1246;fill:url(#SVGID_2_);">
	<!ENTITY st12 "fill:#B0ABC5;">
	<!ENTITY st13 "fill:#837C91;">
	<!ENTITY st14 "opacity:0.49;">
	<!ENTITY st15 "fill:#55803A;">
	<!ENTITY st16 "fill:#F26539;">
	<!ENTITY st17 "fill:#F47C52;">
	<!ENTITY st18 "fill:#293254;">
	<!ENTITY st19 "fill:#F8A181;">
	<!ENTITY st20 "fill:#5E2040;">
	<!ENTITY st21 "fill:url(#SVGID_1_);">
	<!ENTITY st22 "fill:#C4C4C9;">
	<!ENTITY st23 "fill:none;stroke:#978FAB;stroke-width:1.4382;stroke-miterlimit:10;">
	<!ENTITY st24 "fill:#978FAB;">
	<!ENTITY st25 "fill:#FBAB41;">
	<!ENTITY st26 "fill:#FBC7BF;">
	<!ENTITY st27 "fill:#FCC6AD;">
	<!ENTITY st28 "fill:#FFD536;">
	<!ENTITY st29 "fill:#FFFFFF;">
	<!ENTITY st30 "fill:#623342;">
	<!ENTITY st31 "fill:#63B359;">
	<!ENTITY st32 "fill:none;stroke:#12264A;stroke-width:5.2291;stroke-miterlimit:10;">
	<!ENTITY st33 "fill:#66364E;">
	<!ENTITY st34 "display:inline;">
	<!ENTITY st35 "fill:none;stroke:#12264A;stroke-width:1.4382;stroke-linecap:round;stroke-miterlimit:10;">
	<!ENTITY st36 "fill:#32487E;">
	<!ENTITY st37 "fill:#333A66;">
	<!ENTITY st38 "clip-path:url(#SVGID_13_);fill:#12264A;">
	<!ENTITY st39 "fill:none;stroke:#0E213A;stroke-width:31.6413;stroke-miterlimit:10;">
	<!ENTITY st40 "fill:#D04334;">
	<!ENTITY st41 "fill:#3E6B3B;">
	<!ENTITY st42 "fill:#709E40;">
	<!ENTITY st43 "fill:#A0543C;">
	<!ENTITY st44 "display:none;">
	<!ENTITY st45 "clip-path:url(#SVGID_13_);">
	<!ENTITY st46 "fill:#A2CD3C;">
	<!ENTITY st47 "opacity:0.0816;fill:url(#SVGID_3_);">
	<!ENTITY st48 "fill:#4458A4;">
	<!ENTITY st49 "fill:none;stroke:#12264A;stroke-width:1.2974;stroke-miterlimit:10;">
]>
<svg version="1.1" xmlns="http://www.w3.org/2000/svg" xmlns:xlink="http://www.w3.org/1999/xlink" x="0px" y="0px" width="851px"
	 height="451px" viewBox="0 0 851 451" style="enable-background:new 0 0 851 451;" xml:space="preserve">
<g id="Layer_1">
	<rect x="5.037" y="0.004" style="&st1;" width="550.963" height="352.695"/>
	<linearGradient id="SVGID_1_" gradientUnits="userSpaceOnUse" x1="849.9023" y1="-64.6196" x2="528.4758" y2="319.3251">
		<stop  offset="0" style="stop-color:#426DB5"/>
		<stop  offset="0.1304" style="stop-color:#3F7AB9"/>
		<stop  offset="0.7617" style="stop-color:#11BFD7"/>
	</linearGradient>
	<path style="&st21;" d="M851.075,1v425.053c-63.467,28.239-143.728,15.976-194.884-31.396
		c-15.854-14.699-29.395-32.53-48.454-42.759c-41.794-22.445-101.032-3.675-135.103-36.673
		c-29.444-28.506-21.602-78.731-43.588-113.308c-9.53-15.012-22.361-27.902-36.36-38.878C341.617,123.042,336.449,32.48,387.542,1
		H851.075z"/>
	<linearGradient id="SVGID_2_" gradientUnits="userSpaceOnUse" x1="841.3115" y1="-50.1528" x2="519.8853" y2="333.7915">
		<stop  offset="0" style="stop-color:#426DB5"/>
		<stop  offset="0.1304" style="stop-color:#3F7AB9"/>
		<stop  offset="0.7617" style="stop-color:#11BFD7"/>
	</linearGradient>
	<path style="&st11;" d="M839.285,12.789l11.795,421.768c-63.467,28.24-155.522,19.261-206.677-28.113
		c-15.855-14.696-29.396-32.528-48.455-42.754c-41.794-22.444-101.031-3.675-135.103-36.675
		c-29.444-28.503-21.601-78.731-43.588-113.308c-9.529-15.011-22.36-27.902-36.36-38.878C329.828,134.831,336.449,32.48,387.542,1
		L839.285,12.789z"/>
	<linearGradient id="SVGID_3_" gradientUnits="userSpaceOnUse" x1="811.8291" y1="97.1733" x2="619.4428" y2="326.9792">
		<stop  offset="0" style="stop-color:#FFFFFF"/>
		<stop  offset="0.2303" style="stop-color:#C5E8F0"/>
		<stop  offset="0.7617" style="stop-color:#11BFD7"/>
	</linearGradient>
	<path style="&st47;" d="M851.075,130.029v267.637c-7.41,3.978-16.276,6.255-24.794,7.254c-27.759,3.277-56.733-3.204-79.815-17.83
		c-33.916-21.493-52.878-57.768-81.563-85.02c-21.914-20.83-49.708-36.313-79.863-44.492c-19.685-5.338-40.409-7.65-59.227-15.204
		c-26.77-10.759-48.84-33.529-52.42-60.323c-3.578-26.793,14.687-55.985,43.022-62.443c23.844-5.445,48.564,4.843,73.104,4.061
		c20.83-0.663,40.022-9.229,57.274-19.421c15.505-9.156,25.675-19.83,45.83-19.36c14.95,0.349,29.396,6.216,41.033,14.903
		c14.253,10.65,25.396,25.83,42.696,31.42c23.554,7.625,45.806-8.385,68.636-3.252C847.122,128.439,849.147,129.138,851.075,130.029
		z"/>
</g>
<g id="Layer_2">
	<g>
		<g style="&st44;">
			<g style="&st34;">
				<g>
					<defs>
						<path id="SVGID_4_" d="M559.786,286.934c1.471-24.712,1.073-47.56-0.852-52.187c-1.974-2.874-13.831-9.941-25.507-15.181
							l6.563-14.637c8.194,3.672,27.801,13.148,32.844,21.801c2.131,3.651,4.172,10.782,3.175,35.981
							c-0.522,13.198-1.167,23.538-1.167,23.538L559.786,286.934z"/>
					</defs>
					<clipPath id="SVGID_5_">
						<use xlink:href="#SVGID_4_"  style="overflow:visible;"/>
					</clipPath>
				</g>
			</g>
			<g style="&st34;">
				<g>
					<defs>
						<path id="SVGID_6_" d="M559.786,286.934c1.471-24.712,1.073-47.56-0.852-52.187c-1.974-2.874-13.831-9.941-25.507-15.181
							l6.563-14.637c8.194,3.672,27.801,13.148,32.844,21.801c2.131,3.651,4.172,10.782,3.175,35.981
							c-0.522,13.198-1.167,23.538-1.167,23.538L559.786,286.934z"/>
					</defs>
					<clipPath id="SVGID_7_">
						<use xlink:href="#SVGID_6_"  style="overflow:visible;"/>
					</clipPath>
				</g>
			</g>
			<g style="&st34;">
				<g>
					<defs>
						<path id="SVGID_8_" d="M559.786,286.934c1.471-24.712,1.073-47.56-0.852-52.187c-1.974-2.874-13.831-9.941-25.507-15.181
							l6.563-14.637c8.194,3.672,27.801,13.148,32.844,21.801c2.131,3.651,4.172,10.782,3.175,35.981
							c-0.522,13.198-1.167,23.538-1.167,23.538L559.786,286.934z"/>
					</defs>
					<clipPath id="SVGID_9_">
						<use xlink:href="#SVGID_8_"  style="overflow:visible;"/>
					</clipPath>
				</g>
			</g>
		</g>
		<g>
			<g>
				<g>
					<defs>
						<path id="SVGID_10_" d="M559.786,286.934c1.471-24.712,1.073-47.56-0.852-52.187c-1.974-2.874-13.831-9.941-25.507-15.181
							l6.563-14.637c8.194,3.672,27.801,13.148,32.844,21.801c2.131,3.651,4.172,10.782,3.175,35.981
							c-0.522,13.198-1.167,23.538-1.167,23.538L559.786,286.934z"/>
					</defs>
					<clipPath id="SVGID_11_">
						<use xlink:href="#SVGID_10_"  style="overflow:visible;"/>
					</clipPath>
				</g>
			</g>
			<g>
				<path style="&st24;" d="M684.853,306.719H392.826c-2.301,0-4.185-1.883-4.185-4.186l0,0c0-2.302,1.884-4.185,4.185-4.185
					h292.026c2.303,0,4.186,1.883,4.186,4.185l0,0C689.038,304.836,687.155,306.719,684.853,306.719z"/>
				<g>
					<g>
						<g>
							<path style="&st2;" d="M619.817,132.624L619.817,132.624c-2.073-2.212-1.895-5.625,0.401-7.623l0.26-0.226
								c2.295-1.998,5.837-1.825,7.91,0.387l0,0c2.074,2.211,1.895,5.624-0.4,7.622l-0.26,0.226
								C625.433,135.008,621.891,134.835,619.817,132.624z"/>
							<path style="&st16;" d="M624.221,143.356l-5.453,4.749l-15.489-16.518l5.455-4.749c3.779-3.29,9.2-3.727,13.407-1.444
								c1.063,0.575,2.046,1.321,2.909,2.241c2.136,2.279,3.113,5.178,2.968,8.026C627.863,138.508,626.587,141.297,624.221,143.356
								z"/>
							<path style="&st25;" d="M619.293,138.101l-5.454,4.748l-10.561-11.262l5.455-4.749c3.779-3.29,9.2-3.727,13.407-1.444
								c0.724,1.593,1.038,3.31,0.948,5.011C622.935,133.252,621.658,136.042,619.293,138.101z"/>
						</g>
						<path style="&st37;" d="M619.05,148.041c-1.646,1.469-6.509-0.985-10.862-5.493c-4.353-4.507-6.553-9.354-4.905-10.828
							c1.298-1.165,4.611,0.127,8.097,2.947c0.917,0.75,1.854,1.601,2.761,2.543c1.062,1.101,1.996,2.22,2.777,3.307
							C619.341,143.882,620.293,146.928,619.05,148.041z"/>
						<path style="&st29;" d="M616.917,140.518c-1.261,1.389-3.405,1.785-5.143,0.839c-1.983-1.08-2.686-3.514-1.563-5.43
							c0.3-0.511,0.7-0.938,1.167-1.26c0.917,0.75,1.854,1.601,2.761,2.543C615.201,138.311,616.136,139.431,616.917,140.518z"/>
					</g>
					<polyline style="&st32;" points="647.365,186.039 661.504,140.399 632.872,121.325 626.862,126.435 					"/>
					<g>
						<ellipse style="&st2;" cx="632.495" cy="121.597" rx="3.521" ry="3.392"/>
						<ellipse style="&st37;" cx="632.495" cy="121.597" rx="1.76" ry="1.696"/>
					</g>
					<path style="&st25;" d="M661.599,191.821h-36.426l0,0c0-3.997,3.24-7.236,7.236-7.236h21.952
						C658.358,184.585,661.599,187.824,661.599,191.821L661.599,191.821z"/>
					<rect x="632.684" y="182.775" style="&st2;" width="6.571" height="1.99"/>
					<g>
						<ellipse style="&st2;" cx="661.223" cy="140.864" rx="4.929" ry="4.749"/>
						<ellipse style="&st37;" cx="661.223" cy="140.864" rx="2.464" ry="2.375"/>
					</g>
				</g>
				<g>
					<g>
						<path style="&st20;" d="M682.288,181.231h-33.409v-11.558h33.409c1.412,0,2.557,1.145,2.557,2.557v6.444
							C684.845,180.087,683.7,181.231,682.288,181.231z"/>
						<path style="&st20;" d="M670.122,181.231h-33.409v-11.558h33.409c1.412,0,2.558,1.145,2.558,2.557v6.444
							C672.68,180.087,671.534,181.231,670.122,181.231z"/>
						<path style="&st7;" d="M668.469,179.644h-31.756v-8.817h31.756c1.21,0,2.19,0.98,2.19,2.19v4.437
							C670.659,178.663,669.679,179.644,668.469,179.644z"/>
						<rect x="675.188" y="174.236" style="&st29;" width="7.604" height="0.836"/>
						<rect x="675.188" y="176.027" style="&st29;" width="7.604" height="0.837"/>
					</g>
					<g>
						<path style="&st20;" d="M687.708,160.778h-33.409V149.22h33.409c1.412,0,2.558,1.145,2.558,2.557v6.444
							C690.266,159.633,689.12,160.778,687.708,160.778z"/>
						<path style="&st20;" d="M675.542,160.778h-33.409V149.22h33.409c1.412,0,2.557,1.145,2.557,2.557v6.444
							C678.099,159.633,676.954,160.778,675.542,160.778z"/>
						<path style="&st7;" d="M674.313,159.613h-32.18v-9.241h32.18c1.209,0,2.189,0.981,2.189,2.19v4.859
							C676.502,158.632,675.521,159.613,674.313,159.613z"/>
						<rect x="679.702" y="152.87" style="&st7;" width="9.303" height="4.106"/>
						<rect x="680.608" y="153.782" style="&st2;" width="7.604" height="0.836"/>
						<rect x="680.608" y="155.151" style="&st2;" width="7.604" height="0.837"/>
					</g>
					<g>
						<path style="&st2;" d="M684.722,192.182h-33.409v-11.559h33.409c1.412,0,2.557,1.146,2.557,2.558v6.443
							C687.278,191.037,686.134,192.182,684.722,192.182z"/>
						<path style="&st2;" d="M672.555,192.182h-33.409v-11.559h33.409c1.413,0,2.558,1.146,2.558,2.558v6.443
							C675.112,191.037,673.968,192.182,672.555,192.182z"/>
						<path style="&st7;" d="M670.902,190.594h-31.757v-8.395h31.757c1.209,0,2.19,0.98,2.19,2.19v4.013
							C673.093,189.612,672.111,190.594,670.902,190.594z"/>
						<rect x="676.716" y="184.273" style="&st7;" width="9.302" height="4.105"/>
						<rect x="677.621" y="185.186" style="&st2;" width="7.604" height="0.836"/>
						<rect x="677.621" y="186.555" style="&st2;" width="7.604" height="0.836"/>
					</g>
					<g>
						<path style="&st40;" d="M644.519,160.694v8.988h38.392c2.48,0,4.494-2.013,4.494-4.494c0-1.238-0.503-2.363-1.314-3.179
							c-0.817-0.812-1.941-1.315-3.18-1.315H644.519z"/>
						<path style="&st17;" d="M640.058,160.694v8.988h32.309c2.48,0,4.494-2.013,4.494-4.494c0-1.238-0.503-2.363-1.315-3.179
							c-0.816-0.812-1.941-1.315-3.179-1.315H640.058z"/>
						<path style="&st7;" d="M640.058,162.235v5.762h31.097c1.593,0,2.882-1.289,2.882-2.881c0-0.796-0.324-1.515-0.843-2.04
							c-0.524-0.519-1.243-0.842-2.039-0.842H640.058z"/>
					</g>
					<g>
						<line style="&st23;" x1="642.13" y1="151.729" x2="675.388" y2="151.729"/>
						<line style="&st23;" x1="642.13" y1="153.655" x2="675.388" y2="153.655"/>
						<line style="&st23;" x1="642.13" y1="155.581" x2="675.388" y2="155.581"/>
						<line style="&st23;" x1="642.13" y1="157.507" x2="675.388" y2="157.507"/>
					</g>
					<g>
						<line style="&st23;" x1="636.688" y1="172.513" x2="670.146" y2="172.513"/>
						<line style="&st23;" x1="636.688" y1="174.439" x2="670.146" y2="174.439"/>
						<line style="&st23;" x1="636.688" y1="176.365" x2="670.146" y2="176.365"/>
						<line style="&st23;" x1="636.688" y1="178.291" x2="670.146" y2="178.291"/>
					</g>
					<g>
						<line style="&st23;" x1="639.222" y1="183.563" x2="672.68" y2="183.563"/>
						<line style="&st23;" x1="639.222" y1="185.49" x2="672.68" y2="185.49"/>
						<line style="&st23;" x1="639.222" y1="186.992" x2="672.68" y2="186.992"/>
						<line style="&st23;" x1="639.222" y1="188.919" x2="672.68" y2="188.919"/>
					</g>
				</g>
				<rect x="450.949" y="201.391" style="&st3;" width="9.732" height="105.44"/>
				<g>
					<path style="&st33;" d="M552.335,232.008l-58.095,4.36l-16.12-81.818l39.021-0.137c10.934-0.039,20.391,7.601,22.652,18.297
						L552.335,232.008z"/>
					<path style="&st40;" d="M482.426,232.54l-9.662-71.594c-0.432-3.19,1.826-6.152,5.016-6.582l0,0
						c3.189-0.431,6.152,1.827,6.582,5.016l9.663,71.594c0.431,3.189-1.827,6.152-5.017,6.582l0,0
						C485.818,237.987,482.856,235.73,482.426,232.54z"/>
					<g>
						<g>
							<rect x="515.52" y="242.348" style="&st8;" width="6.807" height="40.148"/>
							<path style="&st2;" d="M522.326,244.685v9.073l-6.807-2.634v-6.143C517.223,244.9,520.502,244.765,522.326,244.685z"/>
						</g>
						<path style="&st18;" d="M534.693,245.594h-30.415c-1.673,0-3.042-1.368-3.042-3.041l0,0c0-1.673,1.369-3.042,3.042-3.042
							h30.415c1.674,0,3.041,1.369,3.041,3.042l0,0C537.734,244.226,536.367,245.594,534.693,245.594z"/>
						<path style="&st33;" d="M549.579,241.944H514.62c-4.183,0-7.604-3.423-7.604-7.605l0,0c0-4.183,3.422-7.604,7.604-7.604
							h34.959c4.183,0,7.605,3.422,7.605,7.604l0,0C557.185,238.521,553.762,241.944,549.579,241.944z"/>
						<path style="&st40;" d="M518.859,242.147h-27.963c-4.184,0-7.605-3.423-7.605-7.605l0,0c0-4.183,3.422-7.604,7.605-7.604
							h27.963c4.184,0,7.605,3.422,7.605,7.604l0,0C526.465,238.725,523.043,242.147,518.859,242.147z"/>
						<g>
							<g>
								<path style="&st2;" d="M547.772,295.882h-4.259c0-5.088-4.138-9.227-9.226-9.227h-31.024c-5.087,0-9.226,4.139-9.226,9.227
									h-4.258c0-7.436,6.048-13.484,13.483-13.484h31.024C541.723,282.397,547.772,288.446,547.772,295.882z"/>
							</g>
							<rect x="513.909" y="276.01" style="&st2;" width="9.937" height="6.488"/>
						</g>
						<g>
							<circle style="&st2;" cx="491.746" cy="299.999" r="3.537"/>
							<path style="&st37;" d="M496.848,299.687h-9.681v-1.074c0-2.571,2.083-4.655,4.655-4.655h0.371
								c2.57,0,4.654,2.084,4.654,4.655V299.687z"/>
							<circle style="&st2;" cx="545.843" cy="299.999" r="3.537"/>
							<path style="&st37;" d="M550.944,299.687h-9.682v-1.074c0-2.571,2.084-4.655,4.655-4.655h0.371
								c2.571,0,4.655,2.084,4.655,4.655V299.687z"/>
						</g>
						<rect x="516.26" y="283.715" style="&st2;" width="5.637" height="12.775"/>
						<g>
							<circle style="&st2;" cx="519.197" cy="299.999" r="3.537"/>
							<path style="&st37;" d="M524.298,299.687h-9.681v-1.074c0-2.571,2.084-4.655,4.654-4.655h0.371
								c2.571,0,4.655,2.084,4.655,4.655V299.687z"/>
						</g>
					</g>
				</g>
				<g>
					<g>
						<g>
							<g>
								<path style="&st19;" d="M590.845,176.867l9.649,2.766c0.704,0.201,1.446-0.209,1.648-0.914l0,0
									c0.202-0.705-0.21-1.446-0.914-1.648l-9.648-2.766c-0.705-0.202-1.446,0.209-1.648,0.914l0,0
									C589.729,175.923,590.141,176.664,590.845,176.867z"/>
								<path style="&st19;" d="M593.506,180.063l7.747,2.221c0.704,0.202,1.446-0.209,1.648-0.914l0,0
									c0.202-0.703-0.21-1.445-0.914-1.648l-7.747-2.221c-0.705-0.201-1.446,0.209-1.648,0.914l0,0
									C592.39,179.119,592.801,179.86,593.506,180.063z"/>
								<path style="&st19;" d="M591.304,181.861l9.17,2.629c0.705,0.203,1.446-0.209,1.648-0.914l0,0
									c0.202-0.704-0.21-1.445-0.914-1.648l-9.17-2.629c-0.704-0.201-1.446,0.21-1.648,0.914l0,0
									C590.188,180.918,590.6,181.66,591.304,181.861z"/>
								<path style="&st19;" d="M583.656,182.541l9.843,1.962c0.72,0.144,1.424-0.327,1.567-1.046l0,0
									c0.145-0.719-0.327-1.425-1.046-1.568l-9.845-1.961c-0.718-0.144-1.423,0.327-1.566,1.046l0,0
									C582.466,181.692,582.937,182.398,583.656,182.541z"/>
							</g>
							<path style="&st19;" d="M598.187,179.258c-0.102-0.033-1.195-0.564-2.38-1.143c-2.044-0.998-4.297-1.496-6.572-1.451
								l-4.354,0.085c0,0-0.838,7.224-0.532,7.147c0.304-0.076,9.58,1.597,9.58,1.597L598.187,179.258z"/>
						</g>
						<rect x="582.243" y="176.037" style="&st7;" width="4.157" height="11.137"/>
					</g>
					<g>
						<path style="&st24;" d="M561.139,295.911l25.317-0.951c1.511-0.057,2.688-1.327,2.631-2.837l0,0
							c-0.043-1.163-0.817-2.171-1.929-2.513l-12.691-3.898l-13.68,0.849L561.139,295.911z"/>
						<path style="&st2;" d="M586.99,295.644l-25.622,1.153l-0.083-1.836l27.458-1.235l0,0
							C588.789,294.739,588.004,295.599,586.99,295.644z"/>
					</g>
					<g>
						<line style="&st35;" x1="574.323" y1="289.427" x2="577.152" y2="286.116"/>
						<line style="&st35;" x1="576.543" y1="290.248" x2="579.372" y2="286.937"/>
						<line style="&st35;" x1="578.684" y1="291.383" x2="581.867" y2="287.631"/>
					</g>
					<g>
						<defs>
							<path id="SVGID_12_" d="M559.786,286.934c1.471-24.712,1.073-47.56-0.852-52.187c-1.974-2.874-13.831-9.941-25.507-15.181
								l6.563-14.637c8.194,3.672,27.801,13.148,32.844,21.801c2.131,3.651,4.172,10.782,3.175,35.981
								c-0.522,13.198-1.167,23.538-1.167,23.538L559.786,286.934z"/>
						</defs>
						<clipPath id="SVGID_13_">
							<use xlink:href="#SVGID_12_"  style="overflow:visible;"/>
						</clipPath>
						<g style="&st45;">
							<path style="&st2;" d="M559.786,286.934c1.471-24.712,1.073-47.56-0.852-52.187c-1.974-2.874-13.831-9.941-25.507-15.181
								l6.563-14.637c8.194,3.672,27.801,13.148,32.844,21.801c2.131,3.651,4.172,10.782,3.175,35.981
								c-0.522,13.198-1.167,23.538-1.167,23.538L559.786,286.934z"/>
						</g>
						<path style="&st38;" d="M531.246,211.325c0,0,29.808,10.747,33.254,19.264c3.448,8.517,2.231,56.168,2.231,56.168
							l-9.936,0.405l-33.052-77.458L531.246,211.325z"/>
					</g>
					<path style="&st39;" d="M536.809,141.271l12.752,32.595c2.244,4.854,7.126,7.942,12.474,7.89l21.933-0.217"/>
					<path style="&st19;" d="M525.078,131.708h-3.027c-2.78,0-5.054-2.274-5.054-5.053v-14.238c0-2.779,2.273-5.053,5.054-5.053
						h3.027c2.779,0,5.052,2.273,5.052,5.053v14.238C530.13,129.434,527.857,131.708,525.078,131.708z"/>
					<path style="&st30;" d="M550.747,94.706c-0.021,0.32-0.05,0.64-0.086,0.959c-0.18,1.536-0.515,3.029-0.995,4.445
						c-2.047,6.064-6.689,10.865-12.536,13.171c-2.902,1.148-6.104,1.678-9.427,1.444c-5.383-0.377-10.033,1.717-13.572-1.813
						c-1.141-1.137-2.154-2.389-3.012-3.749c-0.336-0.536-0.652-1.076-0.941-1.635c-1.763-3.405-2.783-11.746-2.495-15.848
						c0.813-11.566,10.593-20.363,22.064-20.076c0.327,0.01,0.654,0.026,0.98,0.049c7.25,0.509,13.405,4.538,16.925,10.305
						c0.007,0.007,0.007,0.007,0.007,0.007c1.029,1.694,1.831,3.542,2.37,5.489C550.663,89.751,550.924,92.198,550.747,94.706z"/>
					<g>
						<path style="&st26;" d="M522.296,98.908c-0.024,0.45-0.127,0.882-0.31,1.277c-0.207,0.475-0.523,0.979-0.913,1.332
							c-0.706,0.633-1.649,1.077-2.671,1.022l-2.195-0.115l-1.686-0.085l0.25-5h0.006l0.043-0.925l0.036-0.718l0.036-0.657
							l0.007-0.17h0.005l3.876,0.201c0.979,0.049,1.849,0.475,2.481,1.125c0.383,0.395,0.676,0.882,0.852,1.411
							C522.26,98.019,522.32,98.452,522.296,98.908z"/>
						<path style="&st27;" d="M548.971,96.785l-0.413,8.084l-0.062,1.21c-0.036,0.797-0.14,1.588-0.286,2.349
							c-1.387,7.142-7.312,12.623-14.581,13.523c-0.219,0.036-0.444,0.055-0.663,0.066c-0.779,0.08-1.563,0.085-2.366,0.049
							c-0.779-0.036-1.533-0.134-2.281-0.274c-1.46-0.268-2.854-0.724-4.148-1.338c0,0-0.007,0-0.013-0.006
							c-5.646-2.671-9.538-8.303-9.745-14.733c-0.006-0.194-0.012-0.383-0.006-0.578c-0.012-0.226,0-0.457,0.012-0.688v-0.122
							l0.024-0.547l0.079-1.442l0.244-4.951l0.006-0.049v-0.006l0.049-0.918l0.036-0.718l0.036-0.657l0.012-0.17
							c0.067-1.144,0.299-2.25,0.634-3.309c0.225-0.742,0.505-1.466,0.814-2.16c0.042-0.115,0.085-0.213,0.134-0.316
							c0.256-0.572,0.555-1.137,0.877-1.673c0-0.006,0.006-0.012,0.006-0.012c1.223-2.044,2.871-3.814,4.817-5.183
							c0.39-0.273,0.791-0.536,1.198-0.778c2.842-1.667,6.175-2.561,9.69-2.379c4.702,0.243,8.918,2.354,11.856,5.578
							c1.576,1.722,2.609,3.741,3.363,5.974c0.292,0.852,0.48,1.727,0.584,2.622C549.02,94.382,549.037,95.568,548.971,96.785z"/>
						<path style="&st26;" d="M516.462,97.405l-0.255,5.019l-0.176,3.388l-1.333-0.067c-0.098-0.006-0.194-0.012-0.286-0.03
							c-2.221-0.268-3.893-2.293-3.784-4.52c0.056-1.156,0.591-2.117,1.405-2.847c0.73-0.651,1.691-0.998,2.738-1.009h0.006
							c0.122-0.012,0.225-0.012,0.347,0L516.462,97.405z"/>
					</g>
					<path style="&st2;" d="M542.854,103.553L542.854,103.553c-0.418,0-0.761-0.342-0.761-0.76v-2.433
						c0-0.418,0.343-0.761,0.761-0.761l0,0c0.419,0,0.762,0.342,0.762,0.761v2.433C543.616,103.21,543.273,103.553,542.854,103.553z
						"/>
					<path style="&st2;" d="M531.702,103.553L531.702,103.553c-0.417,0-0.76-0.342-0.76-0.76v-2.433c0-0.418,0.343-0.761,0.76-0.761
						l0,0c0.418,0,0.761,0.342,0.761,0.761v2.433C532.463,103.21,532.12,103.553,531.702,103.553z"/>
					<path style="&st19;" d="M530.131,122.005c0,0-3.041,0.202-5.961-1.551c0,0-0.007,0-0.013-0.006
						c-5.646-2.671-9.538-8.303-9.745-14.733c-2.221-0.268-3.893-2.293-3.784-4.52c0.056-1.156,0.591-2.117,1.405-2.847
						c0.73-0.651,1.691-0.998,2.738-1.009v-0.006l0.049-0.918l0.036-0.718l0.036-0.657l0.007-0.17h0.005
						c0.067-1.144,0.299-2.25,0.634-3.309c2.3-1.284,4.642-1.527,5.974,1.351c0,0-0.135,1.301-0.25,3.285
						c-0.092,1.484-0.176,3.346-0.188,5.323c-0.037,4.063,0.207,8.607,1.253,11.363
						C524.553,118.763,530.131,122.005,530.131,122.005z"/>
					<path style="&st30;" d="M549.64,85.066h-27.423c-1.801,0-3.273-1.473-3.273-3.274l0,0c0-1.801,1.473-3.274,3.273-3.274h27.423
						c1.801,0,3.274,1.473,3.274,3.274l0,0C552.914,83.593,551.44,85.066,549.64,85.066z"/>
					<path style="&st30;" d="M555.609,87.721c0.268,1.475-0.247,2.873-1.194,3.82c-0.778,0.778-1.861,1.265-3.041,1.265h-25.005
						c-3.587,0-6.494,2.908-6.494,6.494v4.042c0,1.342-1.098,2.439-2.439,2.439h-0.578c-1.347,0-2.439-1.092-2.439-2.439V91.164
						c0-0.097,0.006-0.188,0.019-0.28c-0.462-0.682-0.729-1.509-0.729-2.384c0-1.187,0.486-2.263,1.265-3.048
						c0.779-0.779,1.861-1.265,3.042-1.265h33.182C553.313,84.187,555.231,85.638,555.609,87.721z"/>
					<g>
						<path style="&st33;" d="M547.113,97.369h-5.374c-0.529,0-0.963-0.434-0.963-0.963l0,0c0-0.53,0.434-0.963,0.963-0.963h5.374
							c0.529,0,0.964,0.434,0.964,0.963l0,0C548.077,96.935,547.643,97.369,547.113,97.369z"/>
						<path style="&st33;" d="M534.034,97.369h-5.373c-0.53,0-0.964-0.434-0.964-0.963l0,0c0-0.53,0.434-0.963,0.964-0.963h5.373
							c0.53,0,0.964,0.434,0.964,0.963l0,0C534.998,96.935,534.564,97.369,534.034,97.369z"/>
						<g style="&st14;">
							<polygon style="&st29;" points="532.159,99.295 534.693,104.263 536.619,104.06 533.984,99.295 							"/>
							<polygon style="&st29;" points="544.021,99.295 546.556,104.263 548.482,104.06 545.846,99.295 							"/>
						</g>
						<path style="&st49;" d="M547.192,104.541h-5.725c-0.638,0-1.158-0.521-1.158-1.159v-3.156c0-0.638,0.521-1.16,1.158-1.16
							h5.725c0.638,0,1.159,0.522,1.159,1.16v3.156C548.352,104.02,547.83,104.541,547.192,104.541z"/>
						<path style="&st0;" d="M536.009,104.541h-6.283c-0.663,0-1.206-0.542-1.206-1.205v-3.064c0-0.663,0.543-1.206,1.206-1.206
							h6.283c0.664,0,1.205,0.543,1.205,1.206v3.064C537.214,103.999,536.673,104.541,536.009,104.541z"/>
						<path style="&st5;" d="M540.428,111.078c-0.899,0.932-2.294,1.477-3.83,1.398c-1.288-0.066-2.433-0.558-3.24-1.315"/>
						<path style="&st19;" d="M540.812,106.689c0.002,0.026-0.104-0.003-0.104-0.003c-0.025,0.864-0.774,1.55-2.628,1.497
							l-0.217-6.81C539.839,103.882,540.675,105.277,540.812,106.689z"/>
						<line style="&st0;" x1="537.329" y1="101.829" x2="540.574" y2="101.931"/>
					</g>
					<path style="&st2;" d="M544.998,147.834v61.465l-44.679,4.885l-2.198-66.35c0-9.879,7.154-18.097,16.565-19.751
						c1.132-0.195,2.292-0.298,3.485-0.298h6.777C536.021,127.784,544.998,136.763,544.998,147.834z"/>
					<path style="&st2;" d="M541.451,214.693c0,2.768-0.985,5.305-2.621,7.281c-2.093,2.537-5.268,4.156-8.821,4.156h-19.228
						c-0.572,0-1.132-0.043-1.68-0.129c-1.412-0.2-2.737-0.668-3.93-1.344c-0.213-0.116-0.42-0.243-0.621-0.377
						c-3.131-2.038-5.207-5.573-5.207-9.588l0.354-6.102l41.42-0.359L541.451,214.693z"/>
					<g>
						<rect x="517.413" y="126.567" style="&st7;" width="15.455" height="72.072"/>
					</g>
					<polygon style="&st2;" points="525.658,136.029 521.15,129.61 525.304,127.126 530.166,129.61 					"/>
					<polygon style="&st2;" points="527.252,200.389 522.218,193.594 524.239,133.007 527.364,133.307 531.934,193.348 					"/>
					<polygon style="&st29;" points="533.136,132.504 525.887,127.542 517.414,132.504 516.814,126.396 533.136,126.396 					"/>
					<g>
						<path style="&st24;" d="M529.51,291.554l23.691,8.977c1.412,0.536,2.992-0.175,3.527-1.588l0,0
							c0.412-1.088,0.092-2.318-0.8-3.065l-10.173-8.531l-12.931-4.543L529.51,291.554z"/>
						<path style="&st2;" d="M553.427,301.369l-24.051-8.91l0.639-1.724l25.773,9.549l0,0
							C555.436,301.235,554.379,301.722,553.427,301.369z"/>
					</g>
					<g>
						<path style="&st3;" d="M549.025,261.875c-0.335,13.085-1.49,25.05-1.539,25.549l-8.492-0.827l-7.47-0.725
							c2.166-22.307,2.068-44.747-0.189-49.534c-2.615-2.464-12.78-6.953-22.233-10.336c-1.332-0.475-2.652-0.924-3.93-1.344
							c-0.225-0.079-0.45-0.152-0.676-0.226l0.055-0.151c0,0,7.838-13.767,24.349-9.029c3.479,0.998,6.336,4.303,9.931,6.723
							c1.861,1.248,3.449,2.531,4.604,3.803C546.732,229.402,549.688,236.282,549.025,261.875z"/>
					</g>
					<g>
						<line style="&st35;" x1="543.362" y1="289.9" x2="547.315" y2="288.074"/>
						<line style="&st35;" x1="545.035" y1="291.572" x2="548.988" y2="289.747"/>
						<line style="&st35;" x1="546.505" y1="293.499" x2="550.966" y2="291.42"/>
					</g>
					<path style="&st3;" d="M515.428,155.566l-17.307-7.093v-0.639c0-9.879,7.154-18.097,16.565-19.751
						c0.042,0.036,0.09,0.073,0.134,0.109L515.428,155.566z"/>
					<path style="&st2;" d="M538.994,286.597l-7.47-0.725c2.166-22.307,2.068-44.747-0.189-49.534
						c-2.615-2.464-12.78-6.953-22.233-10.336c-1.412-0.2-2.737-0.668-3.93-1.344c-0.225-0.079-0.45-0.152-0.676-0.226l0.055-0.151
						c-3.131-2.038-5.207-5.573-5.207-9.588l0.354-6.102l6.605,0.907c-0.158,0.474-1.051,5.134,0.578,7.933
						c0.457,0.796,1.12,1.441,2.063,1.801c2.586,0.984,12.422,3.394,20.251,6.898c5.062,2.268,9.289,5,10.165,8.108
						C541.415,241.539,539.329,280.629,538.994,286.597z"/>
					<g>
						<g>
							<path style="&st12;" d="M626.244,191.302H586.42c-2.605,0-4.326-2.708-3.221-5.067l13.889-29.63
								c1.212-2.584,3.808-4.234,6.661-4.234h36.664c1.9,0,3.155,1.975,2.349,3.695L626.244,191.302z"/>
							<g>
								<g>
									<path style="&st12;" d="M586.567,191.403h-28.396c-1.147,0-2.085-0.938-2.085-2.085l0,0c0-1.146,0.938-2.084,2.085-2.084
										h28.396c1.147,0,2.085,0.938,2.085,2.084l0,0C588.652,190.465,587.715,191.403,586.567,191.403z"/>
								</g>
								<g>
									<rect x="572.308" y="188.615" style="&st2;" width="4.056" height="1.217"/>
									<rect x="568.151" y="188.615" style="&st2;" width="2.939" height="1.217"/>
								</g>
							</g>
							<path style="&st13;" d="M625.646,191.302h-39.919c-1.434,0-2.38-1.489-1.771-2.786l14.959-31.912
								c1.211-2.584,3.807-4.234,6.66-4.234h36.664c1.9,0,3.154,1.975,2.349,3.695l-15.488,33.042
								C628.471,190.446,627.124,191.302,625.646,191.302z"/>
						</g>
						
							<ellipse transform="matrix(0.9195 0.3931 -0.3931 0.9195 117.5603 -227.7044)" style="&st29;" cx="614.687" cy="173.154" rx="2.433" ry="4.36"/>
					</g>
					<g>
						<g>
							<g>
								<path style="&st19;" d="M554.661,182.105l9.912-1.584c0.724-0.115,1.221-0.803,1.105-1.526l0,0
									c-0.115-0.724-0.803-1.222-1.526-1.105l-9.911,1.585c-0.725,0.115-1.222,0.802-1.105,1.525l0,0
									C553.252,181.725,553.938,182.222,554.661,182.105z"/>
								<path style="&st19;" d="M557.817,184.785l7.958-1.271c0.725-0.115,1.222-0.803,1.106-1.526l0,0
									c-0.116-0.724-0.803-1.222-1.527-1.105l-7.958,1.272c-0.724,0.115-1.221,0.802-1.105,1.525l0,0
									C556.406,184.403,557.094,184.901,557.817,184.785z"/>
								<path style="&st19;" d="M555.979,188.262l9.419-1.507c0.723-0.115,1.221-0.802,1.104-1.526l0,0
									c-0.115-0.723-0.802-1.221-1.525-1.105l-9.42,1.506c-0.724,0.115-1.221,0.803-1.105,1.526l0,0
									C554.567,187.879,555.254,188.377,555.979,188.262z"/>
							</g>
							<path style="&st19;" d="M558.94,179.543c-0.106,0.013-1.322-0.004-2.641-0.025c-2.273-0.039-4.524,0.467-6.566,1.471
								l-3.909,1.922c0,0,2.239,6.645,2.548,6.699c7.536,1.363,10.121-2.059,10.121-2.059L558.94,179.543z"/>
						</g>
						<rect x="549.76" y="179.518" style="&st7;" width="3.345" height="10.873"/>
					</g>
					<g>
						<path style="&st3;" d="M527.835,191.57c-7.889,0-15.101-4.604-18.415-11.775l-0.162-0.354l-10.324-31.528l12.717-4.165
							l10.062,30.724c1.194,2.293,3.595,3.743,6.191,3.715l21.932-0.217l0.133,13.382l-21.933,0.217
							C527.969,191.57,527.9,191.57,527.835,191.57z"/>
					</g>
					<g>
						<rect x="520.551" y="204.837" style="&st24;" width="11.151" height="3.841"/>
					</g>
				</g>
				<rect x="498.397" y="201.391" style="&st13;" width="9.733" height="105.44"/>
				<rect x="622.9" y="201.389" style="&st13;" width="9.731" height="105.442"/>
				<rect x="670.347" y="201.389" style="&st13;" width="9.732" height="105.442"/>
				<polygon style="&st37;" points="622.9,201.389 632.632,201.389 632.632,236.168 622.9,240.998 				"/>
				<polygon style="&st37;" points="680.079,201.389 680.079,212.623 670.347,217.453 670.347,201.389 				"/>
				<polygon style="&st37;" points="508.212,201.181 508.212,212.56 498.354,217.453 498.354,201.181 				"/>
				<g>
					<path style="&st37;" d="M441.809,204.536h218.475v-8.859c0-2.368-1.919-4.288-4.287-4.288h-209.9
						c-2.367,0-4.287,1.92-4.287,4.288V204.536z"/>
				</g>
				<g>
					<rect x="473.777" y="181.65" style="&st22;" width="47.714" height="10.151"/>
					<rect x="499.551" y="181.535" style="&st7;" width="22.066" height="10.383"/>
					<g>
						<line style="&st6;" x1="473.819" y1="183.52" x2="521.575" y2="183.52"/>
						<line style="&st6;" x1="473.819" y1="185.561" x2="521.575" y2="185.561"/>
						<line style="&st6;" x1="473.819" y1="187.602" x2="521.575" y2="187.602"/>
						<line style="&st6;" x1="473.819" y1="189.645" x2="521.575" y2="189.645"/>
					</g>
				</g>
				<g>
					<rect x="394.748" y="220.989" style="&st33;" width="66.992" height="85.826"/>
					<rect x="419.645" y="220.989" style="&st33;" width="71.222" height="85.826"/>
					<g>
						<rect x="424.201" y="227.275" style="&st17;" width="62.453" height="22.71"/>
						<rect x="424.201" y="253.925" style="&st17;" width="62.453" height="22.71"/>
						<rect x="424.201" y="280.573" style="&st17;" width="62.453" height="22.711"/>
					</g>
					<g>
						<path style="&st29;" d="M466.359,239.847h-15.613c-0.669,0-1.217-0.547-1.217-1.216l0,0c0-0.67,0.548-1.218,1.217-1.218
							h15.613c0.67,0,1.217,0.548,1.217,1.218l0,0C467.576,239.3,467.029,239.847,466.359,239.847z"/>
						<path style="&st29;" d="M466.968,266.309h-15.613c-0.669,0-1.216-0.547-1.216-1.217l0,0c0-0.669,0.547-1.217,1.216-1.217
							h15.613c0.669,0,1.217,0.548,1.217,1.217l0,0C468.185,265.762,467.637,266.309,466.968,266.309z"/>
						<path style="&st29;" d="M466.968,292.77h-15.613c-0.669,0-1.216-0.547-1.216-1.216l0,0c0-0.669,0.547-1.217,1.216-1.217
							h15.613c0.669,0,1.217,0.548,1.217,1.217l0,0C468.185,292.223,467.637,292.77,466.968,292.77z"/>
					</g>
				</g>
				<g>
					<g>
						<path style="&st25;" d="M547.366,177.338v14.928h-12.47v-14.928c0-0.658,0.535-1.193,1.191-1.193h10.087
							C546.831,176.145,547.366,176.68,547.366,177.338z"/>
						<g>
							<path style="&st16;" d="M535.05,189.711c-0.162-0.094-3.99-2.336-4.333-6.263c-0.129-1.497,0.437-2.426,0.935-2.94
								c1.37-1.415,3.648-1.334,3.903-1.32l-0.1,1.822c-0.463-0.021-1.823,0.073-2.496,0.771c-0.342,0.355-0.48,0.85-0.424,1.508
								c0.261,2.989,3.393,4.82,3.424,4.84L535.05,189.711z"/>
						</g>
						<path style="&st40;" d="M544.287,185.649h-3.574c-1.239,0-2.243-1.004-2.243-2.243l0,0c0-1.238,1.004-2.242,2.243-2.242h3.574
							c1.239,0,2.243,1.004,2.243,2.242l0,0C546.53,184.646,545.526,185.649,544.287,185.649z"/>
					</g>
					<path style="&st16;" d="M541.539,192.266h-6.643v-14.928c0-0.658,0.535-1.193,1.191-1.193h0.401
						c0.019,0.779,0.232,6.734,1.904,11.023C539.848,190.902,541.144,192.004,541.539,192.266z"/>
				</g>
				<g>
					<line style="&st23;" x1="639.222" y1="183.563" x2="672.68" y2="183.563"/>
					<line style="&st23;" x1="639.222" y1="185.49" x2="672.68" y2="185.49"/>
					<line style="&st23;" x1="639.222" y1="186.992" x2="672.68" y2="186.992"/>
					<line style="&st23;" x1="639.222" y1="188.919" x2="672.68" y2="188.919"/>
				</g>
				<g>
					<g>
						<g>
							<polygon style="&st29;" points="494.849,181.822 502.858,164.587 510.767,181.619 							"/>
							<rect x="488.462" y="164.688" style="&st29;" width="14.396" height="16.627"/>
							<polygon style="&st37;" points="481.061,181.822 488.36,164.79 496.269,181.822 							"/>
						</g>
						<g>
							<g>
								<rect x="494.342" y="166.817" style="&st24;" width="7.199" height="0.71"/>
							</g>
							<g>
								<rect x="494.951" y="168.237" style="&st24;" width="7.197" height="0.71"/>
							</g>
							<g>
								<path style="&st24;" d="M498.938,179.723l-3.859-9.098l8.401,0.033l4.143,8.821L498.938,179.723z M495.989,171.215
									l3.343,7.879l7.337-0.179l-3.565-7.642L495.989,171.215z"/>
							</g>
						</g>
					</g>
					<g>
						<line style="&st4;" x1="496.445" y1="172.521" x2="504.137" y2="172.521"/>
						<line style="&st4;" x1="497.112" y1="174.181" x2="504.803" y2="174.181"/>
						<line style="&st4;" x1="497.662" y1="175.841" x2="505.352" y2="175.841"/>
						<line style="&st4;" x1="498.564" y1="177.501" x2="506.254" y2="177.501"/>
					</g>
					<g>
						<line style="&st4;" x1="501.844" y1="171.113" x2="505.418" y2="179.061"/>
						<line style="&st4;" x1="499.715" y1="171.152" x2="503.289" y2="179.098"/>
						<line style="&st4;" x1="497.623" y1="171.001" x2="501.16" y2="179.25"/>
					</g>
				</g>
				<g>
					<g>
						
							<rect x="673.627" y="152.181" transform="matrix(0.9847 0.1744 -0.1744 0.9847 39.3166 -115.1041)" style="&st48;" width="2.027" height="27.983"/>
						
							<rect x="674.948" y="151.641" transform="matrix(0.9847 0.1742 -0.1742 0.9847 37.4833 -115.4449)" style="&st48;" width="3.143" height="8.415"/>
					</g>
					<g>
						<polygon style="&st33;" points="669.871,183.645 667.851,183.476 670.189,155.59 671.412,153.807 672.21,155.76 						"/>
					</g>
					<g>
						<polygon style="&st3;" points="667.063,185.069 665.073,185.457 659.726,157.99 660.416,155.941 661.716,157.603 						"/>
					</g>
					<g>
						<polygon style="&st16;" points="671.538,191.459 662.871,191.459 660.029,168.516 674.38,168.516 						"/>
						<polygon style="&st25;" points="674.806,191.459 666.14,191.459 664.86,168.516 677.647,168.516 						"/>
					</g>
				</g>
				<g>
					<g>
						<path style="&st48;" d="M461.865,209.721v11.334h-35.188c-2.457,0-4.557-1.568-5.342-3.762
							c-0.211-0.592-0.328-1.234-0.328-1.908c0-1.559,0.633-2.977,1.658-4.006c1.029-1.025,2.447-1.658,4.012-1.658H461.865z"/>
						<path style="&st36;" d="M448.607,217.293v3.762h-21.93c-2.457,0-4.557-1.568-5.342-3.762H448.607z"/>
						<path style="&st2;" d="M475.164,209.719v11.338h-35.187c-3.13,0-5.669-2.539-5.669-5.669c0-1.562,0.635-2.979,1.658-4.011
							c1.03-1.023,2.449-1.658,4.011-1.658H475.164z"/>
						<path style="&st7;" d="M475.164,211.662v7.27h-33.658c-2.008,0-3.634-1.627-3.634-3.635c0-1.004,0.407-1.91,1.062-2.572
							c0.662-0.654,1.568-1.063,2.572-1.063H475.164z"/>
					</g>
					<g>
						<path style="&st25;" d="M462.631,187.188v11.339h-35.188c-3.129,0-5.669-2.54-5.669-5.669c0-1.563,0.635-2.98,1.659-4.011
							c1.029-1.024,2.448-1.659,4.01-1.659H462.631z"/>
						<path style="&st28;" d="M449.262,190.973v-3.762h-21.93c-2.458,0-4.557,1.568-5.342,3.762H449.262z"/>
						<path style="&st17;" d="M475.164,187.188v11.339h-35.187c-3.13,0-5.669-2.54-5.669-5.669c0-1.563,0.635-2.98,1.658-4.011
							c1.03-1.024,2.449-1.659,4.011-1.659H475.164z"/>
						<path style="&st7;" d="M475.164,189.132v7.269h-33.658c-2.008,0-3.634-1.625-3.634-3.635c0-1.004,0.407-1.91,1.062-2.572
							c0.662-0.654,1.568-1.062,2.572-1.062H475.164z"/>
					</g>
					<g>
						<path style="&st46;" d="M464.676,198.592v11.34h-35.188c-3.129,0-5.665-2.541-5.665-5.67c0-0.962,0.24-1.869,0.661-2.664
							c0.266-0.495,0.604-0.951,0.996-1.349c1.031-1.025,2.447-1.657,4.008-1.657H464.676z"/>
						<path style="&st42;" d="M459.231,198.592v3.006h-34.747c0.266-0.495,0.604-0.951,0.996-1.349
							c1.031-1.025,2.447-1.657,4.008-1.657H459.231z"/>
						<path style="&st42;" d="M459.231,209.936v-3.006h-34.747c0.266,0.496,0.604,0.951,0.996,1.349
							c1.031,1.025,2.447,1.657,4.008,1.657H459.231z"/>
						<path style="&st10;" d="M482.07,198.592v11.338h-35.187c-3.13,0-5.669-2.539-5.669-5.669c0-1.562,0.635-2.98,1.658-4.011
							c1.031-1.023,2.449-1.658,4.011-1.658H482.07z"/>
						<path style="&st7;" d="M482.07,200.535v7.27h-33.658c-2.008,0-3.635-1.626-3.635-3.635c0-1.004,0.408-1.911,1.063-2.572
							c0.661-0.654,1.567-1.063,2.571-1.063H482.07z"/>
					</g>
				</g>
				<g>
					<g>
						<path style="&st15;" d="M428.016,191.123c-4.709,6.411-14.152,7.475-14.152,7.475s-1.812-9.329,2.896-15.74
							c4.707-6.41,14.15-7.475,14.15-7.475S432.723,184.713,428.016,191.123z"/>
						<path style="&st41;" d="M408.247,187.289c4.315,4.254,4.08,11.49,4.08,11.49s-7.231,0.341-11.548-3.912
							c-4.314-4.253-4.08-11.49-4.08-11.49S403.932,183.037,408.247,187.289z"/>
						<path style="&st31;" d="M418.943,184.072c0.877,7.905-5.354,15.083-5.354,15.083s-7.649-5.639-8.526-13.544
							c-0.877-7.904,5.353-15.082,5.353-15.082S418.066,176.168,418.943,184.072z"/>
					</g>
					<g>
						<polygon style="&st33;" points="418.358,220.995 401.978,220.995 396.606,197.095 423.73,197.095 						"/>
						<polygon style="&st43;" points="424.535,220.995 408.154,220.995 405.736,197.095 429.906,197.095 						"/>
					</g>
				</g>
			</g>
			<g>
				<g>
					<defs>
						<path id="SVGID_14_" d="M559.786,286.934c1.471-24.712,1.073-47.56-0.852-52.187c-1.974-2.874-13.831-9.941-25.507-15.181
							l6.563-14.637c8.194,3.672,27.801,13.148,32.844,21.801c2.131,3.651,4.172,10.782,3.175,35.981
							c-0.522,13.198-1.167,23.538-1.167,23.538L559.786,286.934z"/>
					</defs>
					<clipPath id="SVGID_15_">
						<use xlink:href="#SVGID_14_"  style="overflow:visible;"/>
					</clipPath>
				</g>
			</g>
		</g>
		<g style="&st44;">
			<g style="&st34;">
				<g>
					<defs>
						<path id="SVGID_16_" d="M559.786,286.934c1.471-24.712,1.073-47.56-0.852-52.187c-1.974-2.874-13.831-9.941-25.507-15.181
							l6.563-14.637c8.194,3.672,27.801,13.148,32.844,21.801c2.131,3.651,4.172,10.782,3.175,35.981
							c-0.522,13.198-1.167,23.538-1.167,23.538L559.786,286.934z"/>
					</defs>
					<clipPath id="SVGID_17_">
						<use xlink:href="#SVGID_16_"  style="overflow:visible;"/>
					</clipPath>
				</g>
			</g>
			<g style="&st34;">
				<g>
					<defs>
						<path id="SVGID_18_" d="M559.786,286.934c1.471-24.712,1.073-47.56-0.852-52.187c-1.974-2.874-13.831-9.941-25.507-15.181
							l6.563-14.637c8.194,3.672,27.801,13.148,32.844,21.801c2.131,3.651,4.172,10.782,3.175,35.981
							c-0.522,13.198-1.167,23.538-1.167,23.538L559.786,286.934z"/>
					</defs>
					<clipPath id="SVGID_19_">
						<use xlink:href="#SVGID_18_"  style="overflow:visible;"/>
					</clipPath>
				</g>
			</g>
			<g style="&st34;">
				<g>
					<defs>
						<path id="SVGID_20_" d="M559.786,286.934c1.471-24.712,1.073-47.56-0.852-52.187c-1.974-2.874-13.831-9.941-25.507-15.181
							l6.563-14.637c8.194,3.672,27.801,13.148,32.844,21.801c2.131,3.651,4.172,10.782,3.175,35.981
							c-0.522,13.198-1.167,23.538-1.167,23.538L559.786,286.934z"/>
					</defs>
					<clipPath id="SVGID_21_">
						<use xlink:href="#SVGID_20_"  style="overflow:visible;"/>
					</clipPath>
				</g>
			</g>
		</g>
	</g>
	<g>
		<path style="&st9;" d="M490.068,204.536h206.308v-8.859c0-2.368-1.919-4.288-4.286-4.288H494.354c-2.367,0-4.286,1.92-4.286,4.288
			V204.536z"/>
	</g>
</g>
</svg>
